<svg clip-rule="evenodd" fill-rule="evenodd" stroke-linejoin="round" stroke-miterlimit="2" viewBox="0 0 50 50" xmlns="http://www.w3.org/2000/svg"><path d="m44.525 13.841c-.003-.378-.229-.562-.405-.781 0 0-8.636-10.389-10.473-12.488-.095-.107-.1-.109-.305-.316-.137-.137-.33-.256-.484-.256-14.034 0-15.745 0-23.596 0-2.091 0-3.79 1.698-3.79 3.79v42.42c0 2.091 1.699 3.79 3.79 3.79h31.475c2.092 0 3.79-1.699 3.79-3.79z" fill="#333f4c"/><g fill-rule="nonzero"><path d="m24.988 11.232 12.897 22.944h-25.77l6.449-11.472z" fill="#fff"/><path d="m42.177 39.767c-.064-.115-.191-.191-.331-.191h-1.944l1.169-3.571c.038-.115.013-.242-.051-.343-.063-.102-.191-.153-.305-.153h-3.076c-.165 0-.305.102-.356.267l-2.097 6.355c-.038.114-.012.241.051.343.076.102.191.153.305.153h2.288l-.292 4.473c-.013.178.101.343.279.394.038.013.076.013.102.013.14 0 .267-.076.33-.203l3.94-7.169c.064-.114.064-.254-.012-.368z" fill="#fec136"/></g></svg>