<svg version="1.1" id="Layer_1" xmlns="http://www.w3.org/2000/svg" x="0" y="0" viewBox="0 0 209 209" style="enable-background:new 0 0 209 209" xml:space="preserve"><style>.st1{fill:#fff}</style><path d="M185.5 57.7c0-1.6-1-2.3-1.7-3.3 0 0-36-43.3-43.6-52-.4-.4-.4-.5-1.3-1.3-.6-.6-1.4-1.1-2-1.1H38.6c-8.7 0-15.8 7.1-15.8 15.8v176.8c0 8.7 7.1 15.8 15.8 15.8h131.1c8.7 0 15.8-7.1 15.8-15.8V57.7z" style="fill-rule:evenodd;clip-rule:evenodd;fill:#333f4c"/><path class="st1" d="m107.8 103-4.4 3.8-1.3-.1c-2.6-.1-4.5 1.6-4.5 4.2 0 1.4.2 2 1.1 3 .9 1.1 1.8 1.4 3.1 1.4 2.6 0 4.6-2.3 4.2-4.9-.1-.7 0-.9 3.3-4.6 1.9-2.1 3.7-4.1 4-4.4l.5-.6-1.7-1.7-4.3 3.9z"/><path d="M175.7 165.7c-.3-.5-.8-.8-1.4-.8h-8.1l4.9-14.9c.2-.5.1-1-.2-1.4s-.8-.6-1.3-.6h-12.8c-.7 0-1.3.4-1.5 1.1l-8.7 26.5c-.2.5-.1 1 .2 1.4.3.4.8.6 1.3.6h9.5l-1.2 18.6c-.1.7.4 1.4 1.2 1.6.2.1.3.1.4.1.6 0 1.1-.3 1.4-.8l16.4-29.9c.3-.4.3-1-.1-1.5z" style="fill:#fec136"/><path class="st1" d="m101.9 33.7 26.7 47.5 26.7 47.5H48.6l26.7-47.5z"/></svg>